<svg width="363" height="278" viewBox="0 0 363 278" fill="none" xmlns="http://www.w3.org/2000/svg">
<g clip-path="url(#clip0)">
<path d="M206.223 95.1287H20.5034C17.1673 95.1287 14.4629 97.833 14.4629 101.169V223.875C14.4629 227.211 17.1673 229.915 20.5034 229.915H206.223C209.559 229.915 212.264 227.211 212.264 223.875V101.169C212.264 97.833 209.559 95.1287 206.223 95.1287Z" fill="#4D4D4D"/>
<path d="M4.81233e-05 229.397H227.238V239.752C227.238 240.572 226.913 241.358 226.334 241.938C225.755 242.518 224.969 242.845 224.149 242.847H3.09509C2.68719 242.847 2.28331 242.766 1.90667 242.609C1.53003 242.453 1.18807 242.223 0.90044 241.934C0.612812 241.645 0.385194 241.302 0.230672 240.924C0.0761504 240.547 -0.00222643 240.142 4.81233e-05 239.735V229.38V229.397Z" fill="#BABABA"/>
<path d="M203.485 105.454H23.7598V219.066H203.485V105.454Z" fill="#00384C"/>
<path d="M95.5439 229.524H130.636V233.056C130.636 233.208 130.576 233.355 130.468 233.463C130.36 233.571 130.214 233.631 130.061 233.631H96.1192C95.9667 233.631 95.8203 233.571 95.7124 233.463C95.6046 233.355 95.5439 233.208 95.5439 233.056V229.524Z" fill="#808080"/>
<path d="M203.485 105.454H23.7598V115.268H203.485V105.454Z" fill="#006679"/>
<path d="M43.9004 129.212H125.24" stroke="#29ABE2" stroke-width="5" stroke-miterlimit="10"/>
<path d="M67.959 148.834H137.891" stroke="#0071BC" stroke-width="5" stroke-miterlimit="10"/>
<path d="M67.959 158.648H110.007" stroke="#0071BC" stroke-width="5" stroke-miterlimit="10"/>
<path d="M43.9004 177.24H85.9481" stroke="#0071BC" stroke-width="5" stroke-miterlimit="10"/>
<path d="M43.9004 185.932H85.9481" stroke="#0071BC" stroke-width="5" stroke-miterlimit="10"/>
<path d="M43.9004 168.461H85.9481" stroke="#29ABE2" stroke-width="5" stroke-miterlimit="10"/>
<path d="M67.959 139.026H137.891" stroke="#0071BC" stroke-width="5" stroke-miterlimit="10"/>
<path d="M203.485 197.552H23.7598V219.072H203.485V197.552Z" fill="#1A1A1A"/>
<path d="M23.7705 198.069L203.496 197.034" stroke="#4D4D4D" stroke-width="2" stroke-miterlimit="10"/>
<path d="M27.2461 202.754H54.9634" stroke="#B3B3B3" stroke-width="1.5" stroke-miterlimit="10"/>
<path d="M27.2461 205.596H46.5239" stroke="#B3B3B3" stroke-width="1.5" stroke-miterlimit="10"/>
<path d="M27.2461 208.438H46.5239" stroke="#B3B3B3" stroke-width="1.5" stroke-miterlimit="10"/>
<path d="M27.2461 211.279H46.5239" stroke="#B3B3B3" stroke-width="1.5" stroke-miterlimit="10"/>
<path d="M27.2461 214.115H54.9634" stroke="#B3B3B3" stroke-width="1.5" stroke-miterlimit="10"/>
<g style="mix-blend-mode:darken">
<path d="M351.495 236H279.526C276.735 236 274.057 234.876 272.083 232.876C270.109 230.876 269 228.163 269 225.335V53.6663C269 50.307 270.317 47.0853 272.662 44.7099C275.006 42.3345 278.186 41 281.501 41H351.495C353.005 40.9992 354.5 41.2999 355.896 41.8847C357.291 42.4695 358.559 43.3271 359.628 44.4085C360.696 45.4899 361.544 46.7739 362.122 48.1872C362.701 49.6006 362.999 51.1155 363 52.6456V224.343C363.001 225.874 362.704 227.39 362.126 228.805C361.548 230.219 360.7 231.505 359.632 232.587C358.563 233.67 357.295 234.529 355.898 235.114C354.502 235.7 353.006 236.001 351.495 236Z" fill="#329EDE"/>
</g>
<g style="mix-blend-mode:darken">
<path d="M348.42 236H275.6C272.789 236 270.092 234.885 268.105 232.901C266.117 230.917 265 228.225 265 225.419V53.5662C265 50.2334 266.326 47.0372 268.687 44.6805C271.048 42.3239 274.25 41 277.588 41C277.588 41 345.349 41 348.42 41C351.492 41 354.437 42.2178 356.608 44.3856C358.78 46.5534 360 49.4936 360 52.5593V224.441C360 227.506 358.78 230.447 356.608 232.614C354.437 234.782 351.492 236 348.42 236Z" fill="#2B60F0"/>
</g>
<path d="M270.103 224.052L270 54.6744L270.023 54.7204C270.044 52.6781 270.762 50.7044 272.056 49.1267C273.35 47.549 275.143 46.462 277.138 46.046C283.385 45.9885 287.962 46.0058 288.461 46.046C288.722 46.053 288.971 46.1554 289.162 46.3339C289.234 46.4122 289.291 46.5042 289.328 46.6044L289.391 48.5499C289.455 49.633 289.884 50.6623 290.609 51.4682C291.227 52.1356 292.025 52.6094 292.906 52.8324C313.836 52.9015 329.064 52.8267 331.803 52.7921C332.544 52.7806 334.278 52.7346 335.542 51.5488C336.081 51.0159 336.476 50.3544 336.69 49.6263V47.0188C336.678 46.8495 336.707 46.6797 336.775 46.5242C336.843 46.3687 336.948 46.2322 337.081 46.1266C337.205 46.0479 337.347 46.0042 337.494 46L346.808 46.0806C347.227 46.0633 351.608 45.9252 354.273 49.4133C355.452 50.9927 356.059 52.9273 355.995 54.8988C355.972 110.541 355.951 166.182 355.932 221.824C355.995 225.788 355.794 227.644 354.5 229.5C352.307 231.438 350.815 231.83 347.962 231.995H279.687C279.119 232.018 274.766 232.099 272.004 228.685C270.944 227.353 270.284 225.746 270.103 224.052Z" fill="#C4C4C4"/>
<path d="M336.669 154.937H288.897C285.482 154.937 282.713 157.706 282.713 161.121V208.89C282.713 212.305 285.482 215.074 288.897 215.074H336.669C340.085 215.074 342.853 212.305 342.853 208.89V161.121C342.853 157.706 340.085 154.937 336.669 154.937Z" fill="white" fill-opacity="0.6"/>
<path d="M340.886 95.3243H284.686C282.776 95.3243 281.229 96.8722 281.229 98.7816V105.155C281.229 107.065 282.776 108.613 284.686 108.613H340.886C342.795 108.613 344.343 107.065 344.343 105.155V98.7816C344.343 96.8722 342.795 95.3243 340.886 95.3243Z" fill="white" fill-opacity="0.6"/>
<path d="M340.886 74.5694H284.686C282.776 74.5694 281.229 76.1173 281.229 78.0266V84.4004C281.229 86.3098 282.776 87.8576 284.686 87.8576H340.886C342.795 87.8576 344.343 86.3098 344.343 84.4004V78.0266C344.343 76.1173 342.795 74.5694 340.886 74.5694Z" fill="white" fill-opacity="0.6"/>
<path d="M356 155V215H355.465C353.75 215 352.106 214.35 350.893 213.193C349.681 212.036 349 210.466 349 208.83V161.193C349 159.556 349.681 157.987 350.893 156.83C352.106 155.673 353.75 155.023 355.465 155.023L356 155Z" fill="white" fill-opacity="0.6"/>
<path d="M275.982 0H169.468C164.146 0 159.832 4.31392 159.832 9.6354V268.365C159.832 273.686 164.146 278 169.468 278H275.982C281.304 278 285.618 273.686 285.618 268.365V9.6354C285.618 4.44089 281.791 0 275.982 0Z" fill="#58BAB2"/>
<path d="M270.137 0H160.602C154.073 0 148.78 5.29259 148.78 11.8213V266.179C148.78 272.707 154.073 278 160.602 278H270.137C276.666 278 281.959 272.707 281.959 266.179V11.8213C281.959 3.10863 277.353 0 270.137 0Z" fill="#0F8E84"/>
<path d="M238.255 270.562H191.61C191.115 270.562 190.713 270.964 190.713 271.459V272.409C190.713 272.904 191.115 273.306 191.61 273.306H238.255C238.75 273.306 239.152 272.904 239.152 272.409V271.459C239.152 270.964 238.75 270.562 238.255 270.562Z" fill="#58BAB2"/>
<path d="M268.784 7H161.216C157.231 7 154 10.3655 154 14.5171V253.483C154 257.635 157.231 261 161.216 261H268.784C272.769 261 276 257.635 276 253.483V14.5171C276 10.3655 272.769 7 268.784 7Z" fill="#5BE890"/>
<path d="M179.553 253.095L183.137 250.747V255.131L179.553 253.095Z" fill="white" stroke="white" stroke-width="0.75" stroke-miterlimit="10"/>
<path d="M250.882 251.277H247.252V254.907H250.882V251.277Z" fill="white" stroke="white" stroke-width="0.75" stroke-miterlimit="10"/>
<path d="M215.468 255.861C216.997 255.861 218.235 254.623 218.235 253.095C218.235 251.566 216.997 250.328 215.468 250.328C213.94 250.328 212.701 251.566 212.701 253.095C212.701 254.623 213.94 255.861 215.468 255.861Z" fill="white"/>
<path d="M263.873 37.4199H167.058C166.19 37.4199 165.487 38.123 165.487 38.9903V56.426C165.487 57.2934 166.19 57.9965 167.058 57.9965H263.873C264.74 57.9965 265.443 57.2934 265.443 56.426V38.9903C265.443 38.123 264.74 37.4199 263.873 37.4199Z" fill="white" fill-opacity="0.5"/>
<path d="M263.873 67.373H167.058C166.19 67.373 165.487 68.0761 165.487 68.9435V146.286C165.487 147.153 166.19 147.856 167.058 147.856H263.873C264.74 147.856 265.443 147.153 265.443 146.286V68.9435C265.443 68.0761 264.74 67.373 263.873 67.373Z" fill="white" fill-opacity="0.5"/>
<path d="M263.873 187.186H167.058C166.19 187.186 165.487 187.889 165.487 188.756V206.192C165.487 207.059 166.19 207.762 167.058 207.762H263.873C264.74 207.762 265.443 207.059 265.443 206.192V188.756C265.443 187.889 264.74 187.186 263.873 187.186Z" fill="white" fill-opacity="0.5"/>
<path d="M263.873 217.139H167.058C166.19 217.139 165.487 217.842 165.487 218.709V236.145C165.487 237.012 166.19 237.715 167.058 237.715H263.873C264.74 237.715 265.443 237.012 265.443 236.145V218.709C265.443 217.842 264.74 217.139 263.873 217.139Z" fill="white" fill-opacity="0.5"/>
<g filter="url(#filter0_d)">
<path d="M296.648 207.834H200.368C199.506 207.834 198.807 208.593 198.807 209.529V228.344C198.807 229.28 199.506 230.038 200.368 230.038H296.648C297.511 230.038 298.21 229.28 298.21 228.344V209.529C298.21 208.593 297.511 207.834 296.648 207.834Z" fill="#FDFDFD"/>
</g>
<path d="M263.873 157.232H167.058C166.19 157.232 165.487 157.936 165.487 158.803V176.239C165.487 177.106 166.19 177.809 167.058 177.809H263.873C264.74 177.809 265.443 177.106 265.443 176.239V158.803C265.443 157.936 264.74 157.232 263.873 157.232Z" fill="white" fill-opacity="0.5"/>
<g filter="url(#filter1_d)">
<path d="M231.845 84.377H134.706C133.835 84.377 133.13 85.0909 133.13 85.9714V164.495C133.13 165.376 133.835 166.089 134.706 166.089H231.845C232.715 166.089 233.421 165.376 233.421 164.495V85.9714C233.421 85.0909 232.715 84.377 231.845 84.377Z" fill="#FDFDFD"/>
</g>
<path d="M171.637 110.942C171.637 102.981 165.183 96.5266 157.22 96.5266C149.258 96.5266 142.804 102.981 142.804 110.942C142.804 118.904 149.258 125.358 157.22 125.358C165.183 125.358 171.637 118.904 171.637 110.942Z" fill="#CFCDCD"/>
<path d="M220.594 131.68H145.68C143.364 131.68 141.486 133.557 141.486 135.873V149.34C141.486 151.656 143.364 153.534 145.68 153.534H220.594C222.91 153.534 224.788 151.656 224.788 149.34V135.873C224.788 133.557 222.91 131.68 220.594 131.68Z" fill="#CFCDCD"/>
<path d="M212.816 110.942H181.854C180.393 110.942 179.208 112.127 179.208 113.588V116.413C179.208 117.874 180.393 119.059 181.854 119.059H212.816C214.278 119.059 215.463 117.874 215.463 116.413V113.588C215.463 112.127 214.278 110.942 212.816 110.942Z" fill="#CFCDCD"/>
<path d="M221.129 99.5006H181.854C180.393 99.5006 179.208 100.685 179.208 102.147V104.971C179.208 106.433 180.393 107.617 181.854 107.617H221.129C222.591 107.617 223.775 106.433 223.775 104.971V102.147C223.775 100.685 222.591 99.5006 221.129 99.5006Z" fill="#CFCDCD"/>
<path d="M284.094 212.64H205.82V217.271H284.094V212.64Z" fill="#CFCDCD"/>
<path d="M248.046 219.756H205.82V224.387H248.046V219.756Z" fill="#CFCDCD"/>
</g>
<defs>
<filter id="filter0_d" x="194.807" y="205.834" width="107.403" height="30.2045" filterUnits="userSpaceOnUse" color-interpolation-filters="sRGB">
<feFlood flood-opacity="0" result="BackgroundImageFix"/>
<feColorMatrix in="SourceAlpha" type="matrix" values="0 0 0 0 0 0 0 0 0 0 0 0 0 0 0 0 0 0 127 0"/>
<feOffset dy="2"/>
<feGaussianBlur stdDeviation="2"/>
<feColorMatrix type="matrix" values="0 0 0 0 0 0 0 0 0 0 0 0 0 0 0 0 0 0 0.16 0"/>
<feBlend mode="normal" in2="BackgroundImageFix" result="effect1_dropShadow"/>
<feBlend mode="normal" in="SourceGraphic" in2="effect1_dropShadow" result="shape"/>
</filter>
<filter id="filter1_d" x="129.13" y="82.377" width="108.291" height="89.7125" filterUnits="userSpaceOnUse" color-interpolation-filters="sRGB">
<feFlood flood-opacity="0" result="BackgroundImageFix"/>
<feColorMatrix in="SourceAlpha" type="matrix" values="0 0 0 0 0 0 0 0 0 0 0 0 0 0 0 0 0 0 127 0"/>
<feOffset dy="2"/>
<feGaussianBlur stdDeviation="2"/>
<feColorMatrix type="matrix" values="0 0 0 0 0 0 0 0 0 0 0 0 0 0 0 0 0 0 0.16 0"/>
<feBlend mode="normal" in2="BackgroundImageFix" result="effect1_dropShadow"/>
<feBlend mode="normal" in="SourceGraphic" in2="effect1_dropShadow" result="shape"/>
</filter>
<clipPath id="clip0">
<rect width="363" height="278" fill="white"/>
</clipPath>
</defs>
</svg>
